<svg xmlns="http://www.w3.org/2000/svg" width="240" height="16" viewBox="0 0 240 16">
  <path d="M3 13V2l11 5.5zM20 3h3v9h-3zm5 0h3v9h-3zm11 0h8v9h-8zm30 1h1v7h-1zm2 3.5L72 4v7zm5 0L77 4v7zm10 0L87 4v7zm5 0L92 4v7zm37 3.5h-1V4h1zm-2-3.5l-4 3.5V4zm-5 0l-4 3.5V4zm-9 0l-4 3.5V4zm-5 0l-4 3.5V4zm46 3.5h-2V4h2zm3 0h-1V4h1zm4-3.5l-4 3.5V4zm35 .5l8-7v14z"/>
  <path d="M196 11h-4V5h4z"/>
  <path fill="#00f" fill-rule="evenodd" d="M224-16h16V0h-16z"/>
  <path fill="#f600ff" fill-rule="evenodd" d="M208-16h16V0h-16z"/>
  <path fill="#7200ff" fill-rule="evenodd" d="M192-16h16V0h-16z"/>
  <path fill="none" stroke="#000" stroke-width=".5" d="M200.52 6.928a1.133 1.065 0 0 1 1.035 1.06 1.133 1.065 0 0 1-1.035 1.063"/>
  <path fill="none" stroke="#000" stroke-width=".6" d="M201.525 5.867a2.267 2.13 0 0 1 2.07 2.123 2.267 2.13 0 0 1-2.07 2.122"/>
  <path fill="none" stroke="#000" stroke-width=".7" d="M202.03 3.745a4.533 4.262 0 0 1 4.137 4.245 4.533 4.262 0 0 1-4.138 4.245"/>
  <path d="M212 8l8-7v14z"/>
  <path d="M216 11h-4V5h4zm12-3l8-7v14z"/>
  <path d="M232 11h-4V5h4z"/>
  <path fill="none" stroke="red" d="M210 2l12 12"/>
</svg>
